<svg width="438" height="735" viewBox="0 0 438 735" fill="none" xmlns="http://www.w3.org/2000/svg">
<g clip-path="url(#clip0)">
<path d="M349 734.8H88.8C39.8 734.8 0 695 0 646V88.8C0 39.8 39.8 0 88.8 0H349C398 0 437.8 39.8 437.8 88.8V646C437.8 695 398 734.8 349 734.8ZM88.8 32C57.5 32 32 57.5 32 88.8V646C32 677.3 57.5 702.8 88.8 702.8H349C380.3 702.8 405.8 677.3 405.8 646V88.8C405.8 57.5 380.3 32 349 32H88.8Z" fill="#C1C0C1"/>
<path d="M117.2 293.9C149.4 280.3 183.6 273.4 218.9 273.4C254.2 273.4 288.4 280.3 320.6 293.9C330.3 298 339.7 302.7 348.7 307.8L366.9 281.4C323.4 255.9 272.8 241.3 218.8 241.3C164.8 241.3 114.3 256 70.8 281.4L89 307.8C98.1 302.6 107.5 298 117.2 293.9Z" fill="#C1C0C1"/>
<path d="M148.9 369C170.9 359.7 194.5 354.9 218.9 354.9C243.3 354.9 266.9 359.7 288.9 369C293.4 370.9 297.8 373 302.2 375.3L320.5 348.8C290.3 332.3 255.7 322.9 218.9 322.9C182.1 322.9 147.5 332.3 117.3 348.8L135.6 375.3C140 373 144.4 370.9 148.9 369Z" fill="#C1C0C1"/>
<path d="M218.9 436.4C231.7 436.4 243.9 438.9 255.2 443.3L273.8 416.4C257.1 408.7 238.6 404.3 219 404.3C199.4 404.3 180.8 408.6 164.2 416.4L182.8 443.3C193.9 438.8 206.1 436.4 218.9 436.4Z" fill="#C1C0C1"/>
</g>
<defs>
<clipPath id="clip0">
<rect width="437.8" height="734.8" fill="white"/>
</clipPath>
</defs>
</svg>
