<svg width="797" height="743" viewBox="0 0 797 743" fill="none" xmlns="http://www.w3.org/2000/svg">
<path d="M466.5 177.9C441.2 177.9 420.7 157.4 420.7 132.1C420.7 106.8 441.2 86.3 466.5 86.3C491.8 86.3 512.3 106.8 512.3 132.1C512.3 157.4 491.8 177.9 466.5 177.9ZM466.5 118.3C458.9 118.3 452.7 124.5 452.7 132.1C452.7 139.7 458.9 145.9 466.5 145.9C474.1 145.9 480.3 139.7 480.3 132.1C480.3 124.5 474.1 118.3 466.5 118.3Z" fill="#C1C0C1"/>
<path d="M780.1 356.6H16C7.2 356.6 0 349.4 0 340.6C0 331.8 7.2 324.6 16 324.6H780.1C788.9 324.6 796.1 331.8 796.1 340.6C796.1 349.4 788.9 356.6 780.1 356.6Z" fill="#C1C0C1"/>
<path d="M639 460.4H128.3C119.5 460.4 112.3 453.2 112.3 444.4C112.3 435.6 119.5 428.4 128.3 428.4H639C647.8 428.4 655 435.6 655 444.4C655 453.2 647.9 460.4 639 460.4Z" fill="#C1C0C1"/>
<path d="M255.1 356.6C246.3 356.6 239.1 349.4 239.1 340.6V285.9C239.1 237.6 229.7 190.5 211.3 146C192.8 101.4 166.2 61.5 132 27.4C125.8 21.2 125.8 11 132 4.80001C138.2 -1.39999 148.4 -1.39999 154.6 4.80001C191.7 41.9 220.7 85.3 240.8 133.8C260.9 182.3 271.1 233.5 271.1 286V340.7C271.1 349.4 263.9 356.6 255.1 356.6Z" fill="#C1C0C1"/>
<path d="M541 357.1C532.2 357.1 525 349.9 525 341.1V285.9C525 233.4 535.2 182.2 555.3 133.7C575.4 85.2 604.4 41.8 641.5 4.7C647.7 -1.5 657.9 -1.5 664.1 4.7C670.3 10.9 670.3 21.1 664.1 27.3C630 61.4 603.3 101.3 584.8 145.9C566.3 190.5 557 237.6 557 285.8V341C557 349.9 549.8 357.1 541 357.1Z" fill="#C1C0C1"/>
<path d="M541 742.8C532.2 742.8 525 735.6 525 726.8V444.4C525 435.6 532.2 428.4 541 428.4C549.8 428.4 557 435.6 557 444.4V726.8C557 735.6 549.8 742.8 541 742.8Z" fill="#C1C0C1"/>
<path d="M255.1 742.8C246.3 742.8 239.1 735.6 239.1 726.8V444.4C239.1 435.6 246.3 428.4 255.1 428.4C263.9 428.4 271.1 435.6 271.1 444.4V726.8C271.1 735.6 263.9 742.8 255.1 742.8Z" fill="#C1C0C1"/>
<path d="M336.8 126.5C332.7 126.5 328.6 124.9 325.5 121.8L270.6 66.9C264.4 60.7 264.4 50.5 270.6 44.3C276.8 38.1 287 38.1 293.2 44.3L348.1 99.2C354.3 105.4 354.3 115.6 348.1 121.8C345 125 340.9 126.5 336.8 126.5Z" fill="#C1C0C1"/>
<path d="M340.6 283.9C339.5 283.9 338.4 283.8 337.3 283.6C328.6 281.8 323.1 273.3 324.9 264.7C328.7 246.1 339.6 230.2 355.4 219.8C371.2 209.4 390.2 205.8 408.7 209.6C417.4 211.4 422.9 219.9 421.1 228.5C419.3 237.2 410.8 242.7 402.2 240.9C381.2 236.6 360.5 250.1 356.2 271.1C354.7 278.7 348 283.9 340.6 283.9Z" fill="#C1C0C1"/>
</svg>
