<svg width="118" height="31" viewBox="0 0 118 31" fill="none" xmlns="http://www.w3.org/2000/svg">
<mask id="mask0" mask-type="alpha" maskUnits="userSpaceOnUse" x="87" y="0" width="31" height="31">
<path fill-rule="evenodd" clip-rule="evenodd" d="M87.3206 0H117.977V30.0943H87.3206V0Z" fill="white"/>
</mask>
<g mask="url(#mask0)">
<path fill-rule="evenodd" clip-rule="evenodd" d="M102.649 26.6655C96.1121 26.6655 90.813 21.4624 90.813 15.0438C90.813 8.62512 96.1121 3.42158 102.649 3.42158C109.186 3.42158 114.485 8.62512 114.485 15.0438C114.485 21.4624 109.186 26.6655 102.649 26.6655ZM110.063 0H95.2353C90.8641 0 87.3206 3.47929 87.3206 7.77133V22.3234C87.3206 26.615 90.8641 30.0947 95.2353 30.0947H110.063C114.433 30.0947 117.977 26.615 117.977 22.3234V7.77133C117.977 3.47929 114.433 0 110.063 0Z" fill="#322F31"/>
</g>
<mask id="mask1" mask-type="alpha" maskUnits="userSpaceOnUse" x="0" y="0" width="76" height="28">
<path fill-rule="evenodd" clip-rule="evenodd" d="M0.000244141 0.819092H75.4844V27.2221H0.000244141V0.819092Z" fill="white"/>
</mask>
<g mask="url(#mask1)">
<path fill-rule="evenodd" clip-rule="evenodd" d="M42.8193 8.75715V3.79346H38.9841V5.95422C38.9841 7.53739 38.1124 8.75715 36.173 8.75715H35.1489V12.437H38.5265V21.5521C38.5265 24.9112 40.6187 26.901 43.9963 26.901C45.5651 26.901 46.3933 26.6013 46.655 26.4944V22.9638C46.4586 22.9856 45.7611 23.1139 45.151 23.1139C43.5382 23.1139 42.8193 22.4507 42.8193 20.8672V12.437H49.3568V21.5521C49.3568 24.9112 51.4486 26.901 54.8262 26.901C56.395 26.901 57.2236 26.6013 57.4849 26.4944V22.9638C57.3103 22.9856 56.5914 23.1139 55.9814 23.1139C54.3908 23.1139 53.671 22.4507 53.671 20.8672V12.437H57.8985V8.75715H53.671V3.79346H49.3568V8.75715H42.8193ZM62.1478 15.7534C62.278 13.8278 63.869 11.7739 66.593 11.7739C69.6001 11.7739 71.0165 13.6354 71.1036 15.7534H62.1478ZM75.4844 17.508C75.4844 11.838 72.1935 8.20093 66.5717 8.20093C61.9514 8.20093 57.6808 11.9453 57.6808 17.6153C57.6808 23.6919 62.0607 27.2221 67.0076 27.2221C69.8835 27.2221 73.1305 25.9809 74.9606 22.5576L71.8887 20.6748C70.777 22.6645 69.1211 23.5418 67.0076 23.5418C64.3053 23.5418 62.1482 21.5948 62.0172 18.8774H75.3751C75.3965 18.7919 75.4844 18.2143 75.4844 17.508ZM31.6843 0.819092C30.159 0.819092 28.8732 2.0598 28.8732 3.62201C28.8732 5.16243 30.159 6.38219 31.6843 6.38219C33.2753 6.38219 34.5389 5.16243 34.5389 3.62201C34.5389 2.0598 33.2753 0.819092 31.6843 0.819092ZM29.5485 26.6658H33.8632V8.75715H29.5485V26.6658ZM20.963 8.24368C18.5878 8.24368 16.452 9.03505 15.0356 11.4105C14.055 9.31338 11.9632 8.24368 9.56627 8.24368C7.49626 8.24368 5.20811 9.18512 4.16222 11.0253V8.75715H0V26.6658H4.31462V16.0321C4.31462 13.7636 5.77459 12.0736 8.10629 12.0736C10.5686 12.0736 11.6145 13.6781 11.6145 15.7534V26.6658H15.886V16.0321C15.886 13.8278 17.3891 12.0736 19.6772 12.0736C22.1178 12.0736 23.2072 13.6354 23.2072 15.7534V26.6658H27.3912V15.0475C27.3912 10.2976 24.2531 8.24368 20.963 8.24368Z" fill="#322F31"/>
</g>
</svg>
