<svg width="768" height="736" viewBox="0 0 768 736" fill="none" xmlns="http://www.w3.org/2000/svg">
<g clip-path="url(#clip0)">
<path d="M543.8 327C482.9 327 433.3 277.4 433.3 216.5C433.3 155.6 482.9 106 543.8 106C578.9 106 611.1 122.1 632.2 150.2C637.5 157.3 636.1 167.3 629 172.6C621.9 177.9 611.9 176.5 606.6 169.4C591.6 149.5 568.7 138 543.8 138C500.5 138 465.3 173.2 465.3 216.5C465.3 259.8 500.5 295 543.8 295C568.7 295 591.6 283.6 606.6 263.6C611.9 256.5 621.9 255.1 629 260.4C636.1 265.7 637.5 275.7 632.2 282.8C611.1 310.9 578.9 327 543.8 327Z" fill="#C1C0C1"/>
<path d="M369.8 334.5C387.2 334.5 401.4 348.7 401.4 366.1V672.3C401.4 689.7 387.2 703.9 369.8 703.9H63.6C46.2 703.9 32 689.7 32 672.3V366.1C32 348.7 46.2 334.5 63.6 334.5H369.8ZM369.8 302.5H63.6C28.5 302.5 0 331 0 366.1V672.3C0 707.4 28.5 735.9 63.6 735.9H369.8C404.9 735.9 433.4 707.4 433.4 672.3V366.1C433.5 331 405 302.5 369.8 302.5Z" fill="#C1C0C1"/>
<path d="M302.1 538.9H126.2C117.4 538.9 110.2 531.7 110.2 522.9C110.2 514.1 117.4 506.9 126.2 506.9H302.1C310.9 506.9 318.1 514.1 318.1 522.9C318.1 531.7 310.9 538.9 302.1 538.9Z" fill="#C1C0C1"/>
<path d="M214.1 626.8C205.3 626.8 198.1 619.6 198.1 610.8V434.9C198.1 426.1 205.3 418.9 214.1 418.9C222.9 418.9 230.1 426.1 230.1 434.9V610.8C230.1 619.6 223 626.8 214.1 626.8Z" fill="#C1C0C1"/>
<path d="M703.5 32C720.9 32 735.1 46.2 735.1 63.6V369.8C735.1 387.2 720.9 401.4 703.5 401.4H397.3C379.9 401.4 365.7 387.2 365.7 369.8V63.6C365.7 46.2 379.9 32 397.3 32H703.5ZM703.5 0H397.3C362.2 0 333.7 28.5 333.7 63.6V369.8C333.7 404.9 362.2 433.4 397.3 433.4H703.5C738.6 433.4 767.1 404.9 767.1 369.8V63.6C767.1 28.5 738.6 0 703.5 0Z" fill="#C1C0C1"/>
</g>
<defs>
<clipPath id="clip0">
<rect width="767.1" height="735.9" fill="white"/>
</clipPath>
</defs>
</svg>
