<svg width="513" height="736" viewBox="0 0 513 736" fill="none" xmlns="http://www.w3.org/2000/svg">
<g clip-path="url(#clip0)">
<path d="M496.3 384H197.2C188.4 384 181.2 376.8 181.2 368C181.2 359.2 188.4 352 197.2 352H496.3C505.1 352 512.3 359.2 512.3 368C512.3 376.8 505.1 384 496.3 384Z" fill="#C1C0C1"/>
<path d="M69.8 326.6L88.8 352.3C101.7 369.7 107.3 378.6 107.3 390.6V390.8V391V391.1C107.4 401.4 103.5 411.2 96.3 418.5C89.2 425.8 79.7 429.9 69.6 430.1C59.4 429.9 49.9 425.7 42.8 418.4C35.6 411 31.7 401.2 31.8 390.9V390.7V390.5C31.8 381.9 35.3 373.2 43.4 361.4L43.5 361.2L43.6 361C47.6 355 52.3 349 57.3 342.6C59.1 340.3 60.9 337.9 62.8 335.5L63 335.2L63.2 334.9C65.6 332.4 67.7 329.5 69.8 326.6ZM70.4 273.6C69 273.6 55.1 292.6 54.1 294.1C48.6 301.5 43.2 308.8 37.7 316.3C30.9 325.2 23.7 334 17.4 343.3C7.60001 357.4 6.19236e-06 372.6 6.19236e-06 390.7C-0.499994 429.7 30.7 461.8 69.7 462.3C108.7 461.8 139.9 429.8 139.4 390.8V390.7C139.4 367.2 127.8 351.1 114.6 333.3L70.4 273.6C70.4 273.6 70.4 273.7 70.4 273.6Z" fill="#C1C0C1"/>
<path d="M496.3 110.3H197.2C188.4 110.3 181.2 103.1 181.2 94.3C181.2 85.5 188.4 78.3 197.2 78.3H496.3C505.1 78.3 512.3 85.5 512.3 94.3C512.3 103.1 505.1 110.3 496.3 110.3Z" fill="#C1C0C1"/>
<path d="M496.3 657.6H197.2C188.4 657.6 181.2 650.4 181.2 641.6C181.2 632.8 188.4 625.6 197.2 625.6H496.3C505.1 625.6 512.3 632.8 512.3 641.6C512.3 650.4 505.1 657.6 496.3 657.6Z" fill="#C1C0C1"/>
<path d="M69.8 53L88.8 78.7C101.7 96.1 107.3 105 107.3 117V117.2V117.4V117.5C107.4 127.8 103.5 137.6 96.3 144.9C89.2 152.2 79.7 156.3 69.6 156.5C59.4 156.3 49.9 152.1 42.8 144.8C35.6 137.4 31.7 127.6 31.8 117.3V117.1V116.9C31.8 108.3 35.3 99.6 43.4 87.8L43.5 87.6L43.6 87.4C47.6 81.4 52.3 75.4 57.3 69C59.1 66.7 60.9 64.3 62.8 61.9L63 61.6L63.2 61.3C65.6 58.8 67.7 55.9 69.8 53ZM70.4 0C68.9 0 55.1 19 54 20.5C48.5 27.9 43.1 35.2 37.6 42.7C30.8 51.6 23.6 60.4 17.3 69.7C7.60001 83.8 6.19236e-06 98.9 6.19236e-06 117.1C-0.499994 156.1 30.7 188.2 69.7 188.7C108.7 188.2 139.9 156.2 139.4 117.2V117.1C139.4 93.6 127.8 77.5 114.6 59.7L70.4 0Z" fill="#C1C0C1"/>
<path d="M69.8 600.3L88.8 626C101.7 643.4 107.3 652.3 107.3 664.3V664.5V664.7V664.8C107.4 675.1 103.5 684.9 96.3 692.2C89.2 699.5 79.7 703.6 69.6 703.8C59.4 703.6 49.9 699.4 42.8 692.1C35.6 684.7 31.7 674.9 31.8 664.6V664.4V664.2C31.8 655.6 35.3 646.9 43.4 635.1L43.5 634.9L43.6 634.7C47.6 628.7 52.3 622.7 57.3 616.3C59.1 614 60.9 611.6 62.8 609.2L63 608.9L63.2 608.6C65.6 606.1 67.7 603.2 69.8 600.3ZM70.4 547.3C69 547.3 55.1 566.3 54.1 567.8C48.6 575.2 43.2 582.5 37.7 590C30.9 598.9 23.7 607.7 17.4 617C7.60001 631.1 6.19236e-06 646.2 6.19236e-06 664.4C-0.499994 703.4 30.7 735.5 69.7 736C108.7 735.5 139.9 703.5 139.4 664.5V664.4C139.4 640.9 127.8 624.8 114.6 607L70.4 547.3Z" fill="#C1C0C1"/>
</g>
<defs>
<clipPath id="clip0">
<rect width="512.3" height="735.9" fill="white"/>
</clipPath>
</defs>
</svg>
